<svg width="33" height="19" viewBox="0 0 33 19" fill="none" xmlns="http://www.w3.org/2000/svg">
<path fill-rule="evenodd" clip-rule="evenodd" d="M32.2645 1.27731C32.4956 0.52689 32.2645 0 31.1747 0H27.5585C26.6339 0 26.2211 0.47899 25.9899 1.00588C25.9899 1.00588 24.1571 5.34874 21.5482 8.14286C20.6895 8.97311 20.3428 9.21261 19.8639 9.21261C19.6328 9.21261 19.3025 8.95714 19.3025 8.20672V1.27731C19.3025 0.383192 19.0383 0 18.2623 0H12.5821C12.0207 0 11.6575 0.431092 11.6575 0.798319C11.6575 1.64454 12.9454 1.8521 13.1105 4.19916V9.34034C13.1105 10.458 12.8959 10.6655 12.4335 10.6655C11.2282 10.6655 8.22297 6.32269 6.4727 1.34118C6.10944 0.415125 5.77921 0.0159652 4.85453 0.0159652H1.2384C0.198144 0.0159652 0 0.494957 0 1.02185C0 1.9479 1.20537 6.53025 5.69664 12.5975C8.68531 16.7328 12.8959 18.984 16.7101 18.984C19.0053 18.984 19.286 18.4891 19.286 17.6429V14.4975C19.286 13.4916 19.5007 13.3 20.2437 13.3C20.7886 13.3 21.6968 13.5555 23.8268 15.5513C26.2706 17.9143 26.6834 19 28.0539 19H31.67C32.7103 19 33.2222 18.505 32.9084 17.5311C32.5782 16.5571 31.4058 15.1361 29.8702 13.4437C29.0116 12.4697 27.7567 11.4479 27.3934 10.921C26.8485 10.2504 27.0136 9.94706 27.3934 9.37227C27.4099 9.3084 31.8186 3.32101 32.2645 1.27731Z" fill="white"/>
</svg>
