<svg width="16" height="13" viewBox="0 0 16 13" fill="none" xmlns="http://www.w3.org/2000/svg">
<path d="M16 6.50001C16 4.39454 14.4384 2.59303 12.2276 1.85596C13.0288 2.88457 13.5 4.13244 13.5 5.50001C13.5 8.2047 11.6571 10.4412 9.06285 11.4394C9.36821 11.4793 9.6812 11.5 10 11.5C10.384 11.5 10.7597 11.4699 11.1236 11.4125C11.5869 12.0961 12.4302 12.5161 14.0132 12.5161C13.5754 11.8699 13.2726 11.2218 13.1869 10.7372C14.8768 9.85267 16 8.28565 16 6.50001Z" fill="#2A5885"/>
<path d="M1.98 11.5C3.56784 11.5 4.413 11.0858 4.8756 10.4124C5.23982 10.4699 5.61569 10.5 6 10.5C9.31371 10.5 12 8.26143 12 5.5C12 2.73858 9.31371 0.5 6 0.5C2.68629 0.5 0 2.73858 0 5.5C0 7.28484 1.12223 8.85124 2.81076 9.73595C2.73166 10.2122 2.42585 10.8571 1.98 11.5Z" fill="#2A5885"/>
</svg>
