<svg width="13" height="17" viewBox="0 0 13 17" fill="none" xmlns="http://www.w3.org/2000/svg">
<path d="M10.9381 4.5V10.3223C10.5386 10.3183 10.1122 10.4 9.69568 10.5768C8.42473 11.1163 7.7268 12.3367 8.13681 13.3026C8.54682 14.2686 9.90951 14.6142 11.1805 14.0748C12.1815 13.6498 12.827 12.8026 12.8558 11.9899C12.9082 12.007 12.9381 12.0116 12.9381 12V0.5L2.94388 3.45618V12.5C2.94388 12.5207 2.94474 12.5413 2.94642 12.5616C2.57507 12.551 2.17959 12.6126 1.78823 12.7551C0.490787 13.2273 -0.270057 14.4094 0.0888384 15.3955C0.447734 16.3816 1.79046 16.7981 3.08791 16.3259C4.25867 15.8998 4.99251 14.8955 4.86095 13.979C4.91016 13.993 4.93807 14 4.93807 14V6.5L10.9381 4.5Z" fill="#2A5885"/>
</svg>
