<svg width="15" height="15" viewBox="0 0 15 15" fill="none" xmlns="http://www.w3.org/2000/svg">
<path fill-rule="evenodd" clip-rule="evenodd" d="M4.00247 14.5H0.991179C0.449565 14.5 0 14.0543 0 13.5046V4.5H2V10.9966C2 11.2671 2.2232 11.5 2.49852 11.5H3V1.50684C3 0.950771 3.45576 0.5 4.00247 0.5H13.9975C14.5512 0.5 15 0.94994 15 1.50684V13.0018C15 13.8292 14.3204 14.5 13.5045 14.5H4.00247ZM6 7.00952V3.99048C6 3.71959 6.22788 3.5 6.491 3.5H11.509C11.7802 3.5 12 3.71506 12 3.99048V7.00952C12 7.28041 11.7721 7.5 11.509 7.5H6.491C6.21983 7.5 6 7.28494 6 7.00952ZM6 9C6 9.26807 6.21983 9.5 6.491 9.5H11.509C11.7721 9.5 12 9.27614 12 9C12 8.73193 11.7802 8.5 11.509 8.5H6.491C6.22788 8.5 6 8.72386 6 9ZM6.49048 11.5C6.21959 11.5 6 11.2681 6 11C6 10.7239 6.21506 10.5 6.49048 10.5H9.50952C9.78041 10.5 10 10.7319 10 11C10 11.2761 9.78494 11.5 9.50952 11.5H6.49048Z" fill="#2A5885"/>
</svg>
