<svg width="16" height="15" viewBox="0 0 16 15" fill="none" xmlns="http://www.w3.org/2000/svg">
<path d="M7.34454 0.797872C7.64585 0.400709 8.24845 0.400709 8.65019 0.797872L15.781 7.74823C16.1828 8.0461 15.9819 8.34397 15.5802 8.44326L14 8.5V13.5C14 14.5 14 14.5 13 14.5H10.4954C10.2158 14.5 10 14.2802 10 14.009V10.4979C10 9.39826 9.10457 8.5 8 8.5C6.88773 8.5 6 9.3945 6 10.4979V14.009C6 14.2721 5.77821 14.5 5.50461 14.5H3C2 14.5 2 14.5 2 13.5V8.5L0.515016 8.44326C0.0128446 8.44326 -0.188024 8.14539 0.213713 7.74823L7.34454 0.797872Z" fill="#2A5885"/>
</svg>
