<svg width="15" height="16" viewBox="0 0 15 16" fill="none" xmlns="http://www.w3.org/2000/svg">
<path fill-rule="evenodd" clip-rule="evenodd" d="M7.5 0.5C8.0523 0.5 8.5 0.9477 8.5 1.5C8.50013 1.65526 8.46405 1.80841 8.39463 1.94728C8.32521 2.08615 8.22436 2.20692 8.1001 2.3L8.0996 3.0356C8.578 3.0928 9.0356 3.2175 9.4627 3.3999L9.8298 2.7625C9.76898 2.61987 9.74221 2.46503 9.75161 2.31025C9.76102 2.15547 9.80635 2.00502 9.884 1.8708C10.1601 1.3925 10.7717 1.2287 11.25 1.5048C11.7283 1.781 11.8922 2.3925 11.616 2.8708C11.5385 3.00532 11.4307 3.11992 11.3011 3.20548C11.1716 3.29104 11.0239 3.34522 10.8697 3.3637L10.5022 4.0013C10.8794 4.2849 11.2151 4.6206 11.4987 4.9978L12.1364 4.6291C12.155 4.47517 12.2093 4.3277 12.2948 4.19837C12.3804 4.06904 12.4948 3.9614 12.6292 3.884C13.1075 3.6078 13.719 3.7717 13.9952 4.25C14.2713 4.7283 14.1075 5.3399 13.6292 5.616C13.4948 5.69375 13.3441 5.73908 13.1891 5.74841C13.0342 5.75773 12.8791 5.73078 12.7364 5.6697L12.1001 6.0373C12.2824 6.4641 12.4071 6.9213 12.4643 7.3993L13.2007 7.3989C13.2938 7.27491 13.4145 7.17432 13.5533 7.10508C13.692 7.03584 13.8449 6.99986 14 7C14.5523 7 15 7.4477 15 8C15 8.5523 14.5523 9 14 9C13.8447 9.00013 13.6916 8.96405 13.5527 8.89463C13.4138 8.82521 13.2931 8.72436 13.2 8.6001L12.4644 8.5996C12.4085 9.06899 12.2858 9.52799 12.1001 9.9627L12.7375 10.3298C12.8801 10.269 13.035 10.2422 13.1897 10.2516C13.3445 10.261 13.495 10.3063 13.6292 10.384C14.1075 10.6601 14.2713 11.2717 13.9952 11.75C13.719 12.2283 13.1075 12.3922 12.6292 12.116C12.4947 12.0385 12.3801 11.9307 12.2945 11.8011C12.209 11.6716 12.1548 11.5239 12.1363 11.3697L11.4987 11.0022C11.2149 11.3795 10.8795 11.7149 10.5022 11.9987L10.8709 12.6364C11.0248 12.655 11.1723 12.7093 11.3016 12.7948C11.431 12.8804 11.5386 12.9948 11.616 13.1292C11.8922 13.6075 11.7283 14.219 11.25 14.4952C10.7717 14.7713 10.1601 14.6075 9.884 14.1292C9.80625 13.9948 9.76092 13.8441 9.75159 13.6891C9.74227 13.5342 9.76922 13.3791 9.8303 13.2364L9.4627 12.6001C9.02833 12.7856 8.56971 12.9083 8.1007 12.9643L8.1011 13.7007C8.22509 13.7938 8.32568 13.9145 8.39492 14.0533C8.46416 14.192 8.50014 14.3449 8.5 14.5C8.5 15.0523 8.0523 15.5 7.5 15.5C6.9477 15.5 6.5 15.0523 6.5 14.5C6.5 14.1729 6.657 13.8825 6.8999 13.7L6.9004 12.9644C6.43101 12.9085 5.97201 12.7858 5.5373 12.6001L5.1702 13.2375C5.23102 13.3801 5.25779 13.535 5.24838 13.6897C5.23898 13.8445 5.19365 13.995 5.116 14.1292C4.8399 14.6075 4.2283 14.7713 3.75 14.4952C3.2717 14.219 3.1078 13.6075 3.384 13.1292C3.46151 12.9947 3.56933 12.8801 3.69888 12.7945C3.82843 12.709 3.97615 12.6548 4.1303 12.6363L4.4978 11.9987C4.12051 11.7149 3.78505 11.3795 3.5013 11.0022L2.8636 11.3709C2.84495 11.5248 2.79071 11.6723 2.70517 11.8016C2.61964 11.931 2.50515 12.0386 2.3708 12.116C1.8925 12.3922 1.281 12.2283 1.0048 11.75C0.7287 11.2717 0.8925 10.6601 1.3708 10.384C1.50519 10.3063 1.65587 10.2609 1.81085 10.2516C1.96583 10.2423 2.12086 10.2692 2.2636 10.3303L2.8999 9.9627C2.71435 9.52833 2.59172 9.06971 2.5357 8.6007L1.7993 8.6011C1.70619 8.72509 1.58548 8.82568 1.44675 8.89492C1.30801 8.96416 1.15505 9.00014 1 9C0.4477 9 0 8.5523 0 8C0 7.4477 0.4477 7 1 7C1.3271 7 1.6175 7.157 1.8 7.3999L2.5356 7.4004C2.59154 6.93101 2.71422 6.47201 2.8999 6.0373L2.2625 5.6702C2.11987 5.73102 1.96503 5.75779 1.81025 5.74838C1.65547 5.73898 1.50502 5.69365 1.3708 5.616C0.8925 5.3399 0.7287 4.7283 1.0048 4.25C1.281 3.7717 1.8925 3.6078 2.3708 3.884C2.50532 3.96151 2.61992 4.06933 2.70548 4.19888C2.79104 4.32843 2.84522 4.47615 2.8637 4.6303L3.5013 4.9978C3.78505 4.62051 4.12051 4.28505 4.4978 4.0013L4.1291 3.3636C3.97517 3.34495 3.8277 3.29071 3.69837 3.20517C3.56904 3.11964 3.4614 3.00515 3.384 2.8708C3.1078 2.3925 3.2717 1.781 3.75 1.5048C4.2283 1.2287 4.8399 1.3925 5.116 1.8708C5.19375 2.00519 5.23908 2.15587 5.24841 2.31085C5.25773 2.46583 5.23078 2.62086 5.1697 2.7636L5.5373 3.3999C5.97167 3.21435 6.43029 3.09172 6.8993 3.0357L6.8989 2.2993C6.77491 2.20619 6.67432 2.08548 6.60508 1.94675C6.53584 1.80801 6.49986 1.65505 6.5 1.5C6.5 0.9477 6.9477 0.5 7.5 0.5Z" fill="#2A5885"/>
</svg>
